<svg width="100%" height="100%" viewBox="0 0 246 246" version="1.1" xmlns="http://www.w3.org/2000/svg" xmlns:xlink="http://www.w3.org/1999/xlink" xml:space="preserve" xmlns:serif="http://www.serif.com/" style="fill-rule:evenodd;clip-rule:evenodd;stroke-linejoin:round;stroke-miterlimit:2;"><rect id="Artboard3" x="0" y="0" width="245.455" height="245.455" style="fill:none;"/><path d="M228.213,69.985l-0,105.485c-0,29.109 -23.634,52.743 -52.743,52.743l-105.485,-0c-29.11,-0 -52.743,-23.634 -52.743,-52.743l-0,-105.485c-0,-29.11 23.633,-52.743 52.743,-52.743l105.485,-0c29.109,-0 52.743,23.633 52.743,52.743Z" style="fill:url(#_Linear1);"/><path d="M228.213,69.985l-0,105.485c-0,29.109 -23.634,52.743 -52.743,52.743l-105.485,-0c-29.11,-0 -52.743,-23.634 -52.743,-52.743l-0,-105.485c-0,-29.11 23.633,-52.743 52.743,-52.743l105.485,-0c29.109,-0 52.743,23.633 52.743,52.743Z" style="fill:url(#_Linear2);"/><path d="M79.532,83.378l0,-0.033c0,-3.849 1.362,-7.937 3.975,-10.771c3.061,-3.597 7.62,-5.88 12.709,-5.88l33.911,-0c0.145,-0 0.29,0.004 0.356,0.011c0.318,-0.007 0.637,-0.011 0.957,-0.011c19.476,-0 35.02,14.009 35.02,30.889c-0,7.724 -3.212,14.82 -8.585,20.267c6.997,5.672 11.32,13.79 11.32,22.746c0,13.947 -10.544,25.905 -25.234,29.667c-3.154,3.754 -7.168,6.751 -12.106,8.503c-2.273,0.807 -4.653,1.303 -7.059,1.483c-3.168,0.238 -6.363,-0.073 -9.444,-0.83l-22.621,-5.56c-8.127,-1.998 -13.199,-11.213 -13.199,-19.025l0,-71.456Zm8.061,-0.033l0,0.033l0,71.456c0,4.466 2.416,10.055 7.062,11.197l22.621,5.56c2.257,0.554 4.596,0.794 6.917,0.62c1.692,-0.127 3.367,-0.475 4.966,-1.042c11.472,-4.071 15.875,-17.146 15.875,-28.415l0,-12.681c0,-13.4 -5.164,-27.013 -14.248,-36.894c-4.686,-5.097 -10.61,-9.305 -17.399,-10.974l-20.656,-5.077c-0.414,-0.101 -0.842,-0.151 -1.267,-0.119c-0.703,0.053 -1.284,0.324 -1.762,0.722c-1.307,1.505 -2.101,3.468 -2.109,5.614Zm62.773,75.493c6.498,-4.142 10.768,-10.729 10.768,-18.242c0,-6.514 -3.237,-12.348 -8.333,-16.481c0.195,1.983 0.294,3.973 0.294,5.958l0,12.681c0,5.327 -0.881,10.904 -2.729,16.084Zm0.447,-45.403c4.659,-4.084 7.586,-9.664 7.586,-15.852c-0,-12.769 -12.226,-22.828 -26.959,-22.828c-0.292,-0 -0.584,0.004 -0.874,0.012c-0.145,0.004 -0.292,-0 -0.437,-0.012l-13.409,-0c7.746,2.247 14.58,7.073 20,12.968c6.642,7.224 11.465,16.184 14.093,25.712Z" style="fill:#fff;"/><path d="M231.713,69.985l-0,105.485c-0,31.041 -25.202,56.243 -56.243,56.243l-105.485,-0c-31.042,-0 -56.243,-25.202 -56.243,-56.243l-0,-105.485c-0,-31.042 25.201,-56.243 56.243,-56.243l105.485,-0c31.041,-0 56.243,25.201 56.243,56.243Zm-7,-0c-0,-27.178 -22.065,-49.243 -49.243,-49.243l-105.485,-0c-27.178,-0 -49.243,22.065 -49.243,49.243l-0,105.485c-0,27.178 22.065,49.243 49.243,49.243l105.485,-0c27.178,-0 49.243,-22.065 49.243,-49.243l-0,-105.485Z" style="fill:url(#_Linear3);"/><defs><linearGradient id="_Linear1" x1="0" y1="0" x2="1" y2="0" gradientUnits="userSpaceOnUse" gradientTransform="matrix(-223.542,-188.979,188.979,-223.542,382.133,392.55)"><stop offset="0" style="stop-color:#fff;stop-opacity:1"/><stop offset="1" style="stop-color:#fff;stop-opacity:0"/></linearGradient><linearGradient id="_Linear2" x1="0" y1="0" x2="1" y2="0" gradientUnits="userSpaceOnUse" gradientTransform="matrix(208.495,236.893,-236.893,208.495,-106.799,-107.129)"><stop offset="0" style="stop-color:#fff;stop-opacity:1"/><stop offset="1" style="stop-color:#fff;stop-opacity:0"/></linearGradient><linearGradient id="_Linear3" x1="0" y1="0" x2="1" y2="0" gradientUnits="userSpaceOnUse" gradientTransform="matrix(90.6832,-225.04,225.04,90.6832,191.625,188.962)"><stop offset="0" style="stop-color:#fff;stop-opacity:1"/><stop offset="1" style="stop-color:#fff;stop-opacity:0"/></linearGradient></defs></svg>