<svg width="100%" height="100%" viewBox="0 0 1050 1050" version="1.1" xmlns="http://www.w3.org/2000/svg" xmlns:xlink="http://www.w3.org/1999/xlink" xml:space="preserve" xmlns:serif="http://www.serif.com/" style="fill-rule:evenodd;clip-rule:evenodd;stroke-linejoin:round;stroke-miterlimit:2;">
    <g transform="matrix(1,0,0,1,-4413,0)">
        <g id="Artboard3" transform="matrix(0.863714,0,0,0.991701,600.69,7.25608)">
            <rect x="4413.86" y="-7.317" width="1215.68" height="1058.79" style="fill:none;"/>
            <g transform="matrix(1.34502,0,0,1.17144,-1722.96,-94.1137)">
                <path d="M5402.96,331.798L5402.96,720.226C5402.96,827.416 5315.94,914.441 5208.75,914.441L4820.32,914.441C4713.13,914.441 4626.11,827.416 4626.11,720.226L4626.11,331.798C4626.11,224.609 4713.13,137.584 4820.32,137.584L5208.75,137.584C5315.94,137.584 5402.96,224.609 5402.96,331.798Z" style="fill:url(#_Linear1);"/>
            </g>
            <g transform="matrix(1.34502,0,0,1.17144,-1722.96,-94.1137)">
                <path d="M5402.96,331.798L5402.96,720.226C5402.96,827.416 5315.94,914.441 5208.75,914.441L4820.32,914.441C4713.13,914.441 4626.11,827.416 4626.11,720.226L4626.11,331.798C4626.11,224.609 4713.13,137.584 4820.32,137.584L5208.75,137.584C5315.94,137.584 5402.96,224.609 5402.96,331.798Z" style="fill:url(#_Linear2);"/>
            </g>
            <g transform="matrix(0.727599,0,0,0.633697,4072.06,125.111)">
                <path d="M1011.13,358.575L1011.13,358.351C1011.13,332.154 1020.4,304.326 1038.19,285.032C1059.02,260.549 1090.06,245.008 1124.7,245.008L1355.53,245.008C1356.52,245.008 1357.51,245.035 1357.95,245.085C1360.12,245.034 1362.29,245.008 1364.47,245.008C1497.04,245.008 1602.85,340.372 1602.85,455.27C1602.85,507.85 1580.99,556.152 1544.41,593.228C1592.04,631.837 1621.47,687.097 1621.47,748.061C1621.47,842.996 1549.69,924.392 1449.7,950.002C1428.23,975.559 1400.91,995.954 1367.3,1007.88C1351.82,1013.37 1335.62,1016.75 1319.25,1017.98C1297.68,1019.6 1275.93,1017.48 1254.96,1012.33L1100.98,974.479C1045.65,960.881 1011.13,898.152 1011.13,844.98L1011.13,358.575ZM1066,358.351L1066,358.575L1066,844.98C1066,875.378 1082.45,913.42 1114.08,921.194L1268.05,959.04C1283.42,962.817 1299.34,964.447 1315.14,963.262C1326.66,962.397 1338.06,960.033 1348.94,956.17C1427.03,928.459 1457,839.455 1457,762.747L1457,676.432C1457,585.218 1421.85,492.551 1360.02,425.294C1328.12,390.599 1287.79,361.954 1241.58,350.595L1100.98,316.036C1098.16,315.344 1095.25,315.008 1092.35,315.225C1087.57,315.584 1083.61,317.427 1080.36,320.135C1071.46,330.384 1066.06,343.742 1066,358.351ZM1493.3,872.234C1537.53,844.041 1566.6,799.2 1566.6,748.061C1566.6,703.718 1544.56,664.005 1509.88,635.873C1511.2,649.375 1511.88,662.917 1511.88,676.432L1511.88,762.747C1511.88,799.013 1505.88,836.97 1493.3,872.234ZM1496.34,563.172C1528.05,535.375 1547.98,497.392 1547.98,455.27C1547.98,368.35 1464.76,299.88 1364.47,299.88C1362.48,299.88 1360.5,299.907 1358.52,299.96C1357.53,299.987 1356.53,299.96 1355.55,299.88L1264.27,299.88C1317,315.173 1363.52,348.024 1400.41,388.157C1445.62,437.33 1478.45,498.316 1496.34,563.172Z" style="fill:white;"/>
            </g>
            <g transform="matrix(1.34502,0,0,1.17144,-1722.96,-94.1137)">
                <path d="M5415.85,331.798L5415.85,720.226C5415.85,834.529 5323.05,927.329 5208.75,927.329L4820.32,927.329C4706.02,927.329 4613.22,834.529 4613.22,720.226L4613.22,331.798C4613.22,217.495 4706.02,124.696 4820.32,124.696L5208.75,124.696C5323.05,124.696 5415.85,217.495 5415.85,331.798ZM5390.07,331.798C5390.07,231.722 5308.82,150.472 5208.75,150.472L4820.32,150.472C4720.24,150.472 4638.99,231.722 4638.99,331.798L4638.99,720.226C4638.99,820.303 4720.24,901.553 4820.32,901.553L5208.75,901.553C5308.82,901.553 5390.07,820.303 5390.07,720.226L5390.07,331.798Z" style="fill:url(#_Linear3);"/>
            </g>
        </g>
    </g>
</svg>
