<?xml version="1.0" standalone="no"?>
<!DOCTYPE svg PUBLIC "-//W3C//DTD SVG 20010904//EN"
 "http://www.w3.org/TR/2001/REC-SVG-20010904/DTD/svg10.dtd">
<svg version="1.0" xmlns="http://www.w3.org/2000/svg"
 width="1375.000000pt" height="1375.000000pt" viewBox="0 0 1375.000000 1375.000000"
 preserveAspectRatio="xMidYMid meet">
<metadata>
Created by potrace 1.14, written by Peter Selinger 2001-2017
</metadata>
<g transform="translate(0.000000,1375.000000) scale(0.100000,-0.100000)"
fill="#000000" stroke="none">
<path d="M4166 12083 c-1 -1 -35 -3 -76 -4 -326 -8 -699 -160 -953 -389 -71
-63 -203 -200 -241 -250 -141 -183 -232 -416 -270 -695 -12 -83 -13 -693 -12
-3675 1 -1966 5 -3600 9 -3630 76 -583 381 -1104 812 -1385 155 -101 262 -146
473 -200 254 -64 587 -146 627 -155 22 -4 94 -22 160 -38 111 -28 721 -179
755 -187 8 -2 35 -8 60 -14 25 -7 55 -14 67 -16 29 -7 340 -83 368 -91 48 -13
291 -64 330 -69 28 -4 59 -9 70 -11 92 -19 507 -26 630 -11 33 3 76 9 95 11
464 56 946 274 1349 611 30 25 243 238 291 291 31 34 48 42 140 68 58 16 152
46 210 68 58 21 110 40 115 41 6 2 36 15 69 30 32 15 60 27 62 27 11 0 174 81
269 133 659 362 1152 914 1399 1564 42 112 108 342 120 423 3 19 8 46 10 60
26 135 30 203 31 425 0 182 -6 302 -19 371 -2 11 -7 39 -10 64 -14 103 -66
304 -117 448 -48 138 -166 384 -246 514 -59 96 -225 323 -289 393 -116 129
-242 251 -354 344 -36 30 -64 56 -63 58 1 3 39 46 86 96 435 471 684 1013 744
1617 4 41 8 145 7 230 0 239 -14 377 -60 575 -14 61 -27 117 -28 125 -8 33
-89 266 -108 309 -176 405 -400 719 -734 1032 -254 236 -628 473 -974 614
-188 77 -424 154 -552 179 -12 2 -57 12 -98 21 -41 9 -84 18 -95 20 -11 1 -49
8 -85 14 -36 6 -92 13 -125 16 -33 3 -69 7 -80 10 -70 14 -451 18 -2013 19
-965 1 -1755 0 -1756 -1z m3664 -693 c148 -17 166 -20 250 -35 98 -17 115 -20
190 -37 65 -14 51 -10 125 -32 198 -58 411 -145 584 -238 88 -48 308 -189 356
-229 247 -205 383 -352 520 -559 91 -138 158 -264 203 -386 16 -43 33 -88 37
-99 13 -32 13 -34 44 -160 32 -133 38 -163 48 -280 13 -143 7 -355 -12 -460
-3 -16 -10 -56 -16 -89 -24 -138 -84 -315 -162 -476 -51 -107 -59 -120 -141
-247 -94 -147 -259 -333 -422 -476 l-40 -36 -34 117 c-211 739 -562 1442
-1019 2037 -47 61 -89 115 -95 122 -6 6 -24 29 -41 49 -137 173 -538 577 -649
654 -12 8 -30 23 -41 33 -68 64 -415 308 -530 373 -11 6 -45 25 -75 43 -30 17
-118 63 -195 101 -266 130 -503 215 -801 285 -59 15 -110 28 -113 31 -8 8
1953 2 2029 -6z m-3895 -240 c152 -36 147 -35 250 -61 44 -12 87 -22 96 -24 8
-2 154 -38 325 -80 170 -42 318 -78 329 -81 25 -5 561 -137 665 -164 41 -10
86 -21 100 -24 118 -20 418 -116 570 -181 100 -43 348 -170 371 -191 8 -8 19
-14 23 -14 4 0 19 -8 34 -19 15 -10 63 -42 107 -71 75 -50 217 -152 241 -175
6 -5 28 -23 49 -40 21 -16 43 -34 49 -40 6 -5 56 -50 111 -100 238 -216 485
-496 655 -745 25 -36 48 -67 51 -70 11 -10 178 -279 239 -385 67 -116 230
-445 275 -555 199 -487 313 -892 380 -1350 11 -77 14 -94 20 -145 3 -27 8 -66
10 -85 16 -124 20 -362 20 -1125 0 -758 -4 -955 -20 -1095 -7 -55 -15 -112
-20 -145 -2 -16 -7 -43 -9 -60 -3 -16 -9 -55 -16 -85 -6 -30 -13 -68 -15 -83
-20 -108 -118 -441 -154 -522 -5 -11 -15 -36 -21 -55 -36 -101 -177 -371 -258
-495 -108 -163 -317 -398 -462 -519 -228 -189 -591 -358 -860 -401 -25 -4 -54
-9 -65 -11 -128 -25 -462 -25 -590 0 -11 2 -42 7 -69 10 -27 4 -53 9 -57 11
-4 3 -24 7 -44 11 -21 3 -147 33 -279 65 -133 33 -250 62 -260 64 -11 3 -76
19 -145 36 -69 17 -134 33 -143 35 -10 2 -26 6 -35 8 -35 9 -721 178 -838 207
-66 17 -131 32 -145 35 -14 3 -43 10 -65 16 -22 5 -47 12 -55 14 -124 28 -310
78 -350 94 -312 123 -592 557 -628 975 -4 50 -7 1661 -6 3580 1 2667 4 3506
13 3559 46 264 202 482 361 502 18 3 35 6 37 8 9 9 111 -7 228 -34z m5637
-4452 c7 -7 31 -26 53 -43 105 -78 292 -265 388 -388 244 -312 395 -672 434
-1032 12 -104 8 -367 -6 -470 -17 -117 -61 -298 -101 -405 -45 -123 -139 -311
-211 -420 -68 -103 -65 -98 -109 -150 -17 -19 -40 -50 -53 -68 -12 -18 -80
-90 -152 -160 -151 -148 -325 -281 -502 -385 -6 -4 2 30 19 75 47 130 115 357
133 448 2 8 8 33 13 55 14 49 17 66 46 240 25 145 30 181 42 300 4 39 8 81 10
95 24 186 24 1901 0 2095 -2 17 -7 66 -11 109 -4 43 -8 87 -10 97 -4 22 -1 23
17 7z"/>
</g>
</svg>
